<?xml version="1.0" standalone="no"?>
<!DOCTYPE svg PUBLIC "-//W3C//DTD SVG 20010904//EN"
 "http://www.w3.org/TR/2001/REC-SVG-20010904/DTD/svg10.dtd">
<svg version="1.0" xmlns="http://www.w3.org/2000/svg"
 width="600.000000pt" height="600.000000pt" viewBox="0 0 600.000000 600.000000"
 preserveAspectRatio="xMidYMid meet">
<metadata>
Created by potrace 1.11, written by Peter Selinger 2001-2013
</metadata>
<g transform="translate(0.000000,600.000000) scale(0.100000,-0.100000)"
fill="#000000" stroke="none">
<path d="M1409 3858 c0 -1172 -1 -1225 -13 -1303 -10 -67 -13 -77 -35 -136
-44 -117 -118 -199 -226 -250 -79 -37 -144 -50 -289 -55 -66 -3 -122 -6 -124
-9 -2 -2 -5 -151 -6 -331 l-1 -327 220 6 c121 3 238 9 260 12 123 19 219 37
240 45 14 5 25 7 25 5 0 -9 177 58 256 97 261 129 444 364 519 662 49 198 49
199 49 1521 l1 1240 -437 3 -438 2 -1 -1182z"/>
<path d="M2630 2761 l0 -1701 438 0 437 0 0 586 c0 383 3 588 10 590 6 1 192
5 415 7 223 3 416 7 430 10 14 4 45 9 70 12 272 32 532 147 701 310 194 185
288 421 294 740 9 411 -124 705 -410 906 -146 103 -375 188 -580 215 -27 3
-61 9 -75 11 -14 3 -409 8 -877 10 l-853 4 0 -1700z m1545 1044 c39 -10 92
-29 119 -42 104 -53 190 -163 217 -280 11 -51 14 -191 5 -233 -3 -14 -9 -38
-12 -55 -19 -88 -107 -201 -192 -248 -26 -14 -83 -36 -127 -48 -74 -21 -102
-22 -380 -23 l-300 -1 -1 470 c0 259 1 472 2 475 2 3 137 5 301 4 250 -1 309
-4 368 -19z"/>
</g>
</svg>
